<svg width="239" height="27" viewBox="0 0 239 27" fill="none" xmlns="http://www.w3.org/2000/svg">
<path d="M67.3409 11.6421C67.0171 9.23013 65.0739 7.73865 61.7671 7.73865C58.4176 7.73865 56.2102 9.28979 56.2188 11.8125C56.2102 13.7727 57.446 15.0426 60.0028 15.554L62.2699 16.0057C63.4119 16.2358 63.9318 16.6534 63.9489 17.3097C63.9318 18.0852 63.0881 18.6392 61.8182 18.6392C60.5227 18.6392 59.6619 18.0852 59.4403 17.0199L55.8693 17.2074C56.2102 19.7131 58.3409 21.2557 61.8097 21.2557C65.2017 21.2557 67.6307 19.5256 67.6392 16.9432C67.6307 15.0512 66.3949 13.9176 63.8551 13.3977L61.4858 12.9205C60.2671 12.6563 59.8153 12.2387 59.8239 11.608C59.8153 10.8239 60.7017 10.3125 61.8267 10.3125C63.0881 10.3125 63.8381 11.0029 64.0171 11.8466L67.3409 11.6421Z" fill="#F8F8F8"/>
<path d="M69.9254 25.9091H73.5561V18.9034H73.6669C74.1698 19.9943 75.2692 21.2131 77.3828 21.2131C80.3658 21.2131 82.6925 18.8523 82.6925 14.4716C82.6925 9.97161 80.2635 7.73865 77.3913 7.73865C75.201 7.73865 74.1527 9.04263 73.6669 10.108H73.505V7.9091H69.9254V25.9091ZM73.4794 14.4546C73.4794 12.1193 74.468 10.6279 76.2323 10.6279C78.0305 10.6279 78.9851 12.1875 78.9851 14.4546C78.9851 16.7387 78.0135 18.3239 76.2323 18.3239C74.4851 18.3239 73.4794 16.7898 73.4794 14.4546Z" fill="#F8F8F8"/>
<path d="M88.8459 21.2472C90.7805 21.2472 92.0334 20.4034 92.6726 19.1847H92.7749V21H96.218V12.1705C96.218 9.05115 93.576 7.73865 90.6612 7.73865C87.5249 7.73865 85.4624 9.23865 84.9595 11.625L88.3175 11.8977C88.5646 11.0284 89.3402 10.3892 90.6442 10.3892C91.88 10.3892 92.5874 11.0114 92.5874 12.0852V12.1364C92.5874 12.9801 91.6925 13.0909 89.4169 13.3125C86.826 13.5512 84.4993 14.4205 84.4993 17.3438C84.4993 19.9347 86.3487 21.2472 88.8459 21.2472ZM89.8857 18.7415C88.7692 18.7415 87.968 18.2216 87.968 17.2244C87.968 16.2017 88.8118 15.6989 90.0902 15.5199C90.8828 15.4091 92.1783 15.2216 92.6129 14.9318V16.321C92.6129 17.6932 91.4794 18.7415 89.8857 18.7415Z" fill="#F8F8F8"/>
<path d="M104.95 21.2557C108.435 21.2557 110.626 19.2102 110.796 16.2017H107.37C107.157 17.5994 106.237 18.3835 104.992 18.3835C103.296 18.3835 102.197 16.9602 102.197 14.4546C102.197 11.983 103.305 10.5682 104.992 10.5682C106.322 10.5682 107.174 11.446 107.37 12.75H110.796C110.643 9.72445 108.35 7.73865 104.933 7.73865C100.961 7.73865 98.5064 10.4915 98.5064 14.5057C98.5064 18.4858 100.918 21.2557 104.95 21.2557Z" fill="#F8F8F8"/>
<path d="M119.087 21.2557C122.325 21.2557 124.507 19.679 125.018 17.25L121.661 17.0284C121.294 18.0256 120.357 18.5455 119.146 18.5455C117.331 18.5455 116.18 17.3438 116.18 15.3921V15.3835H125.095V14.3864C125.095 9.93752 122.402 7.73865 118.942 7.73865C115.089 7.73865 112.592 10.4744 112.592 14.5142C112.592 18.6648 115.055 21.2557 119.087 21.2557ZM116.18 13.1335C116.257 11.6421 117.391 10.4489 119.001 10.4489C120.578 10.4489 121.669 11.5739 121.678 13.1335H116.18Z" fill="#F8F8F8"/>
<path d="M134.428 7.9091H131.964V4.77274H128.334V7.9091H126.544V10.6364H128.334V17.4546C128.317 20.0199 130.064 21.2898 132.697 21.179C133.635 21.1449 134.3 20.9574 134.666 20.8381L134.095 18.1364C133.916 18.1705 133.533 18.2557 133.192 18.2557C132.467 18.2557 131.964 17.983 131.964 16.9773V10.6364H134.428V7.9091Z" fill="#F8F8F8"/>
<path d="M136.793 21H140.423V13.5938C140.423 11.983 141.599 10.875 143.202 10.875C143.705 10.875 144.395 10.9602 144.736 11.071V7.84945C144.412 7.77274 143.96 7.7216 143.594 7.7216C142.128 7.7216 140.926 8.57388 140.449 10.1932H140.313V7.9091H136.793V21Z" fill="#F8F8F8"/>
<path d="M149.971 21.2472C151.906 21.2472 153.158 20.4034 153.798 19.1847H153.9V21H157.343V12.1705C157.343 9.05115 154.701 7.73865 151.786 7.73865C148.65 7.73865 146.587 9.23865 146.085 11.625L149.442 11.8977C149.69 11.0284 150.465 10.3892 151.769 10.3892C153.005 10.3892 153.712 11.0114 153.712 12.0852V12.1364C153.712 12.9801 152.817 13.0909 150.542 13.3125C147.951 13.5512 145.624 14.4205 145.624 17.3438C145.624 19.9347 147.474 21.2472 149.971 21.2472ZM151.011 18.7415C149.894 18.7415 149.093 18.2216 149.093 17.2244C149.093 16.2017 149.937 15.6989 151.215 15.5199C152.008 15.4091 153.303 15.2216 153.738 14.9318V16.321C153.738 17.6932 152.604 18.7415 151.011 18.7415Z" fill="#F8F8F8"/>
<path d="M171.896 7.9091H168.052L165.342 17.2756H165.205L162.487 7.9091H158.651L163.228 21H167.319L171.896 7.9091Z" fill="#F8F8F8"/>
<path d="M179.274 21.2557C182.513 21.2557 184.695 19.679 185.206 17.25L181.848 17.0284C181.482 18.0256 180.544 18.5455 179.334 18.5455C177.518 18.5455 176.368 17.3438 176.368 15.3921V15.3835H185.283V14.3864C185.283 9.93752 182.59 7.73865 179.129 7.73865C175.277 7.73865 172.78 10.4744 172.78 14.5142C172.78 18.6648 175.243 21.2557 179.274 21.2557ZM176.368 13.1335C176.445 11.6421 177.578 10.4489 179.189 10.4489C180.766 10.4489 181.857 11.5739 181.865 13.1335H176.368Z" fill="#F8F8F8"/>
<path d="M191.283 3.54547H187.652V21H191.283V3.54547Z" fill="#F8F8F8"/>
<path d="M194.191 21H197.822V7.9091H194.191V21ZM196.015 6.2216C197.097 6.2216 197.984 5.3949 197.984 4.3807C197.984 3.37501 197.097 2.54831 196.015 2.54831C194.941 2.54831 194.055 3.37501 194.055 4.3807C194.055 5.3949 194.941 6.2216 196.015 6.2216Z" fill="#F8F8F8"/>
<path d="M204.361 13.4318C204.369 11.7443 205.375 10.7557 206.841 10.7557C208.298 10.7557 209.176 11.7102 209.168 13.3125V21H212.798V12.6648C212.798 9.61365 211.009 7.73865 208.281 7.73865C206.338 7.73865 204.932 8.6932 204.344 10.2188H204.19V7.9091H200.73V21H204.361V13.4318Z" fill="#F8F8F8"/>
<path d="M221.558 26.1818C225.299 26.1818 227.958 24.4773 227.958 21.1279V7.9091H224.353V10.108H224.217C223.731 9.04263 222.665 7.73865 220.475 7.73865C217.603 7.73865 215.174 9.97161 215.174 14.429C215.174 18.7841 217.535 20.8125 220.484 20.8125C222.572 20.8125 223.739 19.7642 224.217 18.6818H224.37V21.0767C224.37 22.875 223.219 23.5739 221.643 23.5739C220.04 23.5739 219.231 22.875 218.933 22.0824L215.575 22.5341C216.009 24.5966 218.029 26.1818 221.558 26.1818ZM221.634 18.0852C219.853 18.0852 218.881 16.6705 218.881 14.4119C218.881 12.1875 219.836 10.6279 221.634 10.6279C223.398 10.6279 224.387 12.1193 224.387 14.4119C224.387 16.7216 223.381 18.0852 221.634 18.0852Z" fill="#F8F8F8"/>
<path d="M236.571 21.2216C237.662 21.2216 238.608 20.3097 238.616 19.1761C238.608 18.0597 237.662 17.1477 236.571 17.1477C235.446 17.1477 234.517 18.0597 234.526 19.1761C234.517 20.3097 235.446 21.2216 236.571 21.2216Z" fill="#FF57B2"/>
<path d="M9.88103 0.55307L0 12.0576L9.88103 23.5601L12.2174 19.8829L5.55897 12.0556L12.2174 4.2283L9.88103 0.55307ZM14.2051 23.2854H18.5415L25.4359 0.764989H21.0974L14.2051 23.2854ZM30.119 0.55307L27.7826 4.23027L34.441 12.0576L27.7826 19.8848L30.119 23.562L40 12.0595L30.119 0.55307Z" fill="#FF57B2"/>
</svg>
